<svg id="Capa_1" enable-background="new 0 0 512 512" height="512" viewBox="0 0 512 512" width="512" xmlns="http://www.w3.org/2000/svg"><g><path d="m295.979 244.054h-79.958c-4.147 0-7.509 3.362-7.509 7.509s3.362 7.509 7.509 7.509h79.958c4.147 0 7.509-3.362 7.509-7.509s-3.362-7.509-7.509-7.509z"/><path d="m295.979 283.466h-79.958c-4.147 0-7.509 3.362-7.509 7.509s3.362 7.509 7.509 7.509h79.958c4.147 0 7.509-3.362 7.509-7.509s-3.362-7.509-7.509-7.509z"/><path d="m448.15 179.952c-7.287-41.893-28.153-80.256-59.444-109.313l1.547-1.799c2.85-3.314 4.242-7.711 3.818-12.063-.424-4.353-2.638-8.399-6.075-11.102-37.443-29.454-84.32-45.675-131.996-45.675-22.107 0-43.997 3.416-65.064 10.154-3.95 1.263-6.128 5.49-4.865 9.44s5.491 6.126 9.44 4.865c19.585-6.264 39.937-9.44 60.489-9.44 44.323 0 87.903 15.08 122.713 42.461.303.238.391.541.411.753.021.211-.007.524-.257.815l-12.964 15.076c-.374.435-1.019.5-1.472.149-30.821-24.007-69.329-37.228-108.431-37.228s-77.61 13.221-108.43 37.226c-.451.351-1.099.286-1.472-.149l-12.964-15.076c-.25-.291-.278-.604-.257-.815.021-.212.109-.515.412-.754 9.475-7.453 19.696-14.077 30.379-19.687 3.672-1.928 5.085-6.468 3.157-10.139-1.929-3.672-6.468-5.086-10.139-3.157-11.494 6.036-22.49 13.162-32.682 21.179-3.437 2.704-5.651 6.75-6.075 11.103-.423 4.352.968 8.749 3.818 12.063l1.547 1.8c-31.291 29.057-52.157 67.419-59.444 109.312-23.771.641-42.915 20.163-42.915 44.086v85.264c0 24.326 19.791 44.117 44.117 44.117h4.407c4.147 0 7.509-3.362 7.509-7.509s-3.362-7.509-7.509-7.509h-4.407c-16.045 0-29.098-13.054-29.098-29.098v-85.264c0-16.045 13.054-29.098 29.098-29.098h34.26v274.175c0 23.647 19.238 42.886 42.886 42.886h241c4.322 0 8.177-2.576 9.82-6.562 1.657-4.017.728-8.599-2.365-11.673-6.617-6.575-10.262-15.329-10.262-24.651 0-11.067 5.219-21.352 14.054-27.912 10.134-.458 18.244-8.822 18.244-19.068v-68.717h34.26c11.784 0 22.863-4.589 31.195-12.922 2.933-2.932 2.933-7.687 0-10.619-2.932-2.932-7.687-2.932-10.619 0-5.496 5.496-12.803 8.523-20.576 8.523h-34.26v-143.46h34.26c16.045 0 29.098 13.054 29.098 29.098v75.574c0 4.147 3.362 7.509 7.509 7.509s7.509-3.362 7.509-7.509v-75.574c0-23.923-19.144-43.445-42.915-44.086zm-50.48 242.183c0 2.257-1.836 4.093-4.093 4.093h-251.379c-10.632 0-20.366 3.898-27.868 10.328v-271.431c0-11.853 9.644-21.497 21.497-21.497h257.749c2.257 0 4.093 1.836 4.093 4.093v274.414zm-23.78 74.847h-231.693c-15.366 0-27.867-12.501-27.867-27.867 0-15.367 12.501-27.868 27.868-27.868h231.692c-5.481 8.103-8.518 17.758-8.518 27.868 0 10.085 2.977 19.705 8.518 27.867zm19.686-368.372h-257.749c-20.135 0-36.515 16.381-36.515 36.515v14.795h-20.2c7.087-37.454 25.976-71.719 53.98-97.889l1.62 1.884c5.604 6.517 15.307 7.485 22.087 2.205 28.195-21.961 63.426-34.056 99.201-34.056s71.006 12.095 99.202 34.056c2.936 2.287 6.42 3.402 9.882 3.402 4.532 0 9.028-1.912 12.205-5.607l1.62-1.884c28.003 26.17 46.892 60.435 53.979 97.889h-20.2v-32.199c0-10.538-8.573-19.111-19.112-19.111z"/><path d="m227.34 458.768h-77.22c-4.147 0-7.509 3.362-7.509 7.509s3.362 7.509 7.509 7.509h77.22c4.147 0 7.509-3.362 7.509-7.509s-3.362-7.509-7.509-7.509z"/><path d="m283.033 458.768h-23.661c-4.147 0-7.509 3.362-7.509 7.509s3.362 7.509 7.509 7.509h23.661c4.147 0 7.509-3.362 7.509-7.509s-3.362-7.509-7.509-7.509z"/></g></svg>